HIERARCHY
ROOT RootJoint
{
    OFFSET   0.000000   0.000000   0.000000
    CHANNELS 6 Xposition Yposition Zposition Xrotation Yrotation Zrotation
    JOINT lHip
    {
        OFFSET   0.100000  -0.051395   0.000000
        CHANNELS 3 Xrotation Yrotation Zrotation
        JOINT lKnee
        {
            OFFSET   0.000000  -0.410000   0.000000
            CHANNELS 3 Xrotation Yrotation Zrotation
            JOINT lAnkle
            {
                OFFSET   0.000000  -0.390000   0.000000
                CHANNELS 3 Xrotation Yrotation Zrotation
                JOINT lToeJoint
                {
                    OFFSET   0.000000  -0.050000   0.130000
                    CHANNELS 3 Xrotation Yrotation Zrotation
                    End Site
                    {
                        OFFSET   0.010000   0.002000   0.060000
                    }
                }
            }
        }
    }
    JOINT rHip
    {
        OFFSET  -0.100000  -0.051395   0.000000
        CHANNELS 3 Xrotation Yrotation Zrotation
        JOINT rKnee
        {
            OFFSET   0.000000  -0.410000   0.000000
            CHANNELS 3 Xrotation Yrotation Zrotation
            JOINT rAnkle
            {
                OFFSET   0.000000  -0.390000   0.000000
                CHANNELS 3 Xrotation Yrotation Zrotation
                JOINT rToeJoint
                {
                    OFFSET   0.000000  -0.050000   0.130000
                    CHANNELS 3 Xrotation Yrotation Zrotation
                    End Site
                    {
                        OFFSET  -0.010000   0.002000   0.060000
                    }
                }
            }
        }
    }
    JOINT pelvis_lowerback
    {
        OFFSET   0.000000   0.093605   0.000000
        CHANNELS 3 Xrotation Yrotation Zrotation
        JOINT lowerback_torso
        {
            OFFSET   0.000000   0.100000   0.000000
            CHANNELS 3 Xrotation Yrotation Zrotation
            JOINT torso_head
            {
                OFFSET   0.000000   0.282350   0.000000
                CHANNELS 3 Xrotation Yrotation Zrotation
                End Site
                {
                    OFFSET   0.000000   0.192650   0.000000
                }
            }
            JOINT lTorso_Clavicle
            {
                OFFSET   0.001000   0.157500   0.000000
                CHANNELS 3 Xrotation Yrotation Zrotation
                JOINT lShoulder
                {
                    OFFSET   0.117647   0.000000   0.000000
                    CHANNELS 3 Xrotation Yrotation Zrotation
                    JOINT lElbow
                    {
                        OFFSET   0.245000   0.000000   0.000000
                        CHANNELS 3 Xrotation Yrotation Zrotation
                        JOINT lWrist
                        {
                            OFFSET   0.240000   0.000000   0.000000
                            CHANNELS 3 Xrotation Yrotation Zrotation
                            End Site
                            {
                                OFFSET   0.116353  -0.002500   0.000000
                            }
                        }
                    }
                }
            }
            JOINT rTorso_Clavicle
            {
                OFFSET  -0.001000   0.157500   0.000000
                CHANNELS 3 Xrotation Yrotation Zrotation
                JOINT rShoulder
                {
                    OFFSET  -0.117647   0.000000   0.000000
                    CHANNELS 3 Xrotation Yrotation Zrotation
                    JOINT rElbow
                    {
                        OFFSET  -0.245000   0.000000   0.000000
                        CHANNELS 3 Xrotation Yrotation Zrotation
                        JOINT rWrist
                        {
                            OFFSET  -0.240000   0.000000   0.000000
                            CHANNELS 3 Xrotation Yrotation Zrotation
                            End Site
                            {
                                OFFSET  -0.116353  -0.002500   0.000000
                            }
                        }
                    }
                }
            }
        }
    }
}
MOTION
Frames: 10
Frame Time:   0.010000
  1.000000   1.000000   1.000000 -10.750469 -35.613121  -1.308306 -28.972222  17.428281   2.629718  52.766816   3.620512  12.783676  -2.542106  -0.393356  -0.290297   0.305403  -2.007831   4.507604 -20.401804 -17.602463  -1.888186  43.017037  -3.564595  -9.434612   2.057066  -2.015171   1.688800  -4.450088  -1.384454   1.859815  -0.637445   1.260418   0.490002  15.111830   1.822369   2.114233  26.958417   0.130818   1.507571   6.624177  -3.307986 -28.168203  16.122773 -40.093189 -62.619459   2.854603 -48.165149  12.331469  13.146648   0.932411  -7.280024   0.378292   1.867276  28.126555  24.529705  39.381594  58.351730  -0.355205  45.354326  -6.760405  10.383313   2.146110  -2.951093
  1.000000   1.000000   1.000000  -8.314285 -41.081098  -3.836889 -27.637750  20.864785   1.011051  52.236576   4.521267  11.593244  -3.389967   1.155550   0.691310   1.248090  -3.737737   5.620333 -21.449086 -21.008132   1.083058  45.482092  -3.177497  -7.406173   3.075572  -2.629360   6.247511  -2.450254  -1.584928   1.108828  -1.574162   1.807245   2.228105  17.584441   1.976355   3.450160  24.517665   2.810785  -1.574086   7.697409  -4.434347 -26.306690  19.234393 -41.631500 -60.971104   7.074084 -47.107543  12.861460  11.523006   1.488028  -6.384857   0.260832   3.430175  29.077491  22.751201  39.882715  59.644636  -5.091215  44.466429  -4.944545  10.217677   5.726997  -2.335766
  1.000000   1.000000   1.000000   0.688632 -56.279010  10.081728 -29.472399  21.316291   1.590750  51.986887   2.143443  11.451487  -3.824814   0.264780  -3.820950   0.824188  -0.631744   5.169766 -18.234101 -20.429016   1.985174  45.946560  -1.875462  -8.270210  -0.204772  -1.607579   2.110838  -1.653802  -3.235424   1.292744  -1.126071  -0.073625   2.074355  17.736170   4.604093   2.310876  23.865226  -1.615533   2.758377   5.174047  -6.857982 -26.038807  18.140053 -39.091542 -61.893984   3.386818 -46.204404  12.601120  12.205365   2.813166  -4.215512  -2.367839   4.242522  26.207948  24.078571  39.960560  58.251674  -5.784994  46.524209  -1.259443   9.638103   5.724738  -2.875741
  1.000000   1.000000   1.000000  -7.714862 -44.382974   1.583156 -27.485021  19.020418   2.114721  51.507689   5.120939  12.045375  -1.915390  -0.950597  -2.002744   2.098065  -2.692045   5.007002 -22.345914 -17.772053   1.360067  43.709150  -1.811209 -10.906952   3.196048  -1.550483   2.347681  -3.654336  -1.969348   3.571377  -0.956085   2.756606   3.429458  17.173477   0.789786   3.905801  25.627755   0.801043   1.718717   5.184036  -4.836143 -28.388184  14.330069 -40.655247 -63.399150   3.163030 -48.973663  13.011257  13.364018  -0.715707  -3.524006  -1.786980   4.899803  29.387165  24.002811  42.290422  58.068732  -1.643513  44.439629  -4.703450  10.039569   3.397082  -5.500171
  1.000000   1.000000   1.000000  -3.910597 -40.740619   1.258113 -30.305494  20.975787   0.343988  51.813606   5.328708  12.777920   0.079051   3.637287   1.541232  -0.155051  -4.441212   4.044925 -23.159778 -18.250323  -6.757705  46.454245  -2.683544  -9.782961   1.793589  -2.773789   4.053449  -3.891754  -3.017685   1.124521  -3.807285   2.561020   2.873655  17.743375   2.632366   4.547964  28.518819   4.174646   0.266936   7.802609  -1.621306 -27.152900  18.999638 -40.345337 -61.519727   1.570704 -48.034439   8.764099   9.678915   3.103885  -5.730424  -2.245788   3.913054  31.054942  23.690912  40.864694  58.667462   0.279177  44.002531  -5.845083  11.682044   3.863868  -1.570572
  1.000000   1.000000   1.000000  -6.643749 -20.862582   3.699081 -30.452203  19.323274   0.208193  51.616639   5.073339  11.376424  -3.846900  -1.990536  -1.997144   1.619343  -3.774408   4.338722 -17.962936 -19.092411   0.125328  45.467068  -0.310375 -10.038819  -1.155884  -2.105370   5.254444  -4.118204  -3.897416   3.354115  -0.401679   1.484128   3.499653  17.822687   3.504241   3.809983  27.169432   5.251613  -0.679760   7.454220  -1.954585 -27.810508  15.228782 -40.530589 -62.737267   4.644447 -48.028897  13.337309  10.405674   1.805600  -4.647260  -0.313494   5.907502  27.312099  21.679888  40.121468  59.788325  -2.143392  44.677849  -6.654010  10.797566   2.245104  -1.539636
  1.000000   1.000000   1.000000  -6.733998 -39.739252   5.344216 -30.021037  19.066097   1.262249  52.840027   4.190160  10.729905  -1.668758   0.285859  -0.049396   2.006559  -4.751297   3.196435 -19.334003 -20.246298  -0.060573  44.230808  -1.115058  -9.377497   1.134959  -3.405519   3.240939  -2.599211  -2.435264   3.932535  -0.237486   4.846271   2.677967  18.778733   0.633767   2.028283  27.299930   3.285125  -1.262679   5.422005  -1.804295 -27.162975  17.102308 -41.808806 -60.888573   4.832323 -46.875549  12.625677  12.191796   1.217117  -5.168029  -0.355853   6.261915  28.658632  24.382687  40.894627  58.542067  -0.678647  44.263571  -5.961599  11.579541   1.539292  -3.519602
  1.000000   1.000000   1.000000 -10.881029 -48.253108  -0.589474 -29.540388  16.958970   3.868940  51.578289   5.977841  12.056530  -2.924412   1.438616  -1.059066  -1.557318  -2.449880   3.679213 -20.265803 -19.211802   0.957005  46.147859  -2.612554 -10.625863  -0.549733  -0.512326   1.561836  -2.854033  -1.857325   1.370340  -2.076390   2.715928   2.376307  18.190811   1.778468   2.859632  28.262871   0.358999   0.633431   8.483534  -4.186505 -26.387504  18.526343 -41.874403 -61.304738   2.268149 -49.132414  14.917270  13.675378   1.938415  -6.412241  -0.746276   1.458643  26.831589  23.652559  40.334146  59.635418   0.089774  45.376930  -7.083568   8.299672   4.615151  -4.918211
  1.000000   1.000000   1.000000  -8.654935 -28.683067  -2.077241 -28.388999  20.101335   1.788177  52.441482   4.336643  12.325235  -4.917699  -0.230541  -1.435523   2.339144  -2.847304   5.741106 -23.355413 -18.991188   0.215898  44.771054  -3.781202 -10.311209   2.871261  -1.967661   5.448167  -1.907516  -2.302009   0.583723  -0.930295   2.087145   2.855457  16.077941   2.452997   3.552951  24.468352   7.010272  -2.307669   6.170183  -4.817924 -27.485787  13.094593 -42.229458 -63.015174   3.094164 -48.747641  13.417700  12.192841   0.583003  -2.780096  -1.070548   4.302649  29.646766  24.725250  38.941106  58.965230  -3.094517  44.753467  -4.838368  11.996163   3.696125  -1.974006
  1.000000   1.000000   1.000000  -2.272125 -32.457930  -0.605085 -30.651270  18.541187   2.706205  53.643888   3.574896  11.636435  -2.300339   0.732505  -3.210374   1.488548  -2.391321   4.931893 -21.780693 -17.868322  -0.709071  45.838114  -3.736760  -9.414738   1.443156  -1.295866   4.723384  -3.272038  -2.868844   1.086644  -2.061689   3.808982   2.890459  16.914646   2.324557   3.598935  26.167496   1.029968   0.589593   8.291546  -3.570545 -25.383460  18.481442 -42.270764 -60.454390   2.805634 -49.222626  10.653606  15.354791   0.473467  -4.647338  -0.304730   2.802000  29.901212  22.157257  41.722309  59.212794  -2.281301  44.388567  -3.892745  10.364667   3.379234  -3.283840
